<?xml version="1.0" standalone="no"?>
<!DOCTYPE svg PUBLIC "-//W3C//DTD SVG 20010904//EN"
 "http://www.w3.org/TR/2001/REC-SVG-20010904/DTD/svg10.dtd">
<svg version="1.0" xmlns="http://www.w3.org/2000/svg"
 width="1890.000000pt" height="1417.000000pt" viewBox="0 0 1890.000000 1417.000000"
 preserveAspectRatio="xMidYMid meet">

<g transform="translate(0.000000,1417.000000) scale(0.100000,-0.100000)"
fill="#000000" stroke="none">
<path d="M11495 10944 c-393 -56 -566 -106 -840 -240 -426 -208 -801 -551
-1072 -979 -91 -144 -232 -443 -258 -548 -4 -15 -11 -29 -15 -32 -12 -8 -239
-8 -295 -1 -47 6 -116 -4 -177 -26 -35 -13 -38 -50 -5 -64 27 -12 96 -9 163 7
100 24 119 4 158 -166 19 -86 20 -121 21 -785 0 -528 -3 -723 -14 -813 l-13
-118 -37 -24 c-19 -14 -49 -25 -64 -25 -16 0 -43 -6 -60 -14 -113 -48 -153
-60 -162 -46 -3 6 -30 9 -58 8 -29 -1 -73 0 -99 2 -42 3 -48 6 -53 31 -3 15
-4 56 -1 91 3 34 8 124 12 198 4 74 8 155 10 180 6 80 4 413 -3 423 -3 6 -8
26 -10 46 -2 20 -8 38 -13 39 -6 2 -10 9 -10 16 0 7 -9 31 -20 54 -11 22 -20
45 -20 50 0 23 -53 101 -88 129 -67 54 -127 75 -241 84 -134 10 -222 -1 -286
-37 -56 -32 -142 -115 -156 -151 -16 -44 -26 -23 -34 75 -11 140 -8 645 4 738
22 160 22 162 5 178 -20 20 -26 20 -66 -3 -54 -32 -240 -66 -340 -63 -49 1
-88 -2 -88 -7 0 -5 -9 -11 -20 -14 -24 -6 -27 -42 -4 -51 9 -3 46 -6 83 -6 88
0 129 -25 149 -90 15 -48 15 -34 10 -915 -2 -253 0 -484 4 -513 11 -91 -7
-320 -30 -373 -24 -55 -68 -99 -98 -99 -24 0 -38 -14 -53 -53 l-10 -27 47 6
c26 3 61 10 77 15 17 5 102 11 190 14 88 2 193 9 233 15 40 5 83 8 95 5 15 -4
30 1 45 15 18 17 20 25 11 42 -10 19 -17 20 -87 14 -43 -3 -82 -3 -89 2 -15 9
-43 127 -43 174 1 18 -1 71 -4 118 -3 47 -6 214 -7 371 l-1 286 26 42 c14 22
26 47 26 55 0 20 67 93 118 128 50 34 141 53 209 43 85 -13 167 -120 178 -235
3 -29 9 -80 15 -114 16 -105 12 -484 -6 -548 -6 -22 -34 -231 -38 -291 -5 -57
-13 -68 -64 -82 -42 -12 -54 -41 -27 -61 14 -11 23 -10 46 2 35 18 164 23 264
10 39 -5 84 -8 100 -7 25 1 95 -7 195 -23 8 -1 23 -6 33 -10 11 -5 39 -1 75
12 31 11 93 28 137 37 44 9 90 21 103 26 13 5 44 9 70 9 26 0 84 5 128 10 56
7 100 7 145 -1 35 -5 93 -14 129 -18 36 -5 81 -12 101 -16 39 -8 79 7 79 29 0
19 -31 43 -65 49 -16 3 -61 11 -100 17 -85 15 -101 22 -119 59 -18 34 -24 281
-12 516 4 88 9 223 11 300 3 125 7 256 20 590 2 55 0 131 -4 168 -5 47 -3 79
6 105 7 20 13 46 13 57 0 48 20 90 47 102 28 11 118 25 182 27 40 1 62 27 45
54 -10 15 -33 17 -233 17 -121 0 -221 4 -221 9 0 15 67 158 120 256 128 235
268 420 464 615 363 360 785 582 1269 668 167 29 516 31 687 4 124 -20 292
-62 405 -101 642 -222 1112 -736 1258 -1376 68 -298 87 -484 69 -682 -21 -240
-67 -407 -172 -623 -122 -250 -260 -435 -511 -681 -286 -281 -569 -483 -1194
-854 -620 -369 -856 -525 -1129 -749 -507 -415 -840 -927 -936 -1440 -25 -130
-25 -187 0 -71 30 143 54 214 128 383 163 373 483 747 892 1043 274 197 530
348 1075 629 105 54 225 118 269 142 43 24 80 43 83 43 2 0 61 32 131 72 478
269 752 466 1036 746 233 231 382 432 506 687 137 279 198 528 207 840 6 222
-6 373 -42 514 -198 784 -753 1376 -1515 1616 -255 81 -430 107 -725 110 -126
2 -243 1 -260 -1z"/>
<path d="M7554 10480 c-261 -33 -567 -144 -771 -280 -448 -300 -739 -786 -827
-1385 -13 -89 -35 -313 -36 -372 0 -7 17 4 38 25 91 91 217 112 343 58 14 -6
17 11 23 136 15 323 64 539 177 778 164 346 447 610 806 754 190 76 355 106
581 106 138 0 185 -4 290 -26 398 -82 755 -317 992 -652 63 -90 93 -112 106
-78 7 18 -58 131 -137 241 -243 340 -628 586 -1054 675 -114 24 -410 35 -531
20z"/>
<path d="M4775 9191 c-177 -34 -303 -123 -376 -266 -16 -33 -34 -67 -39 -75
-59 -104 -85 -225 -70 -332 14 -95 15 -99 66 -185 64 -108 216 -246 297 -268
12 -4 31 -10 42 -15 11 -5 54 -23 95 -40 41 -17 102 -45 135 -61 33 -16 80
-33 105 -38 57 -12 147 -49 199 -84 22 -15 46 -27 52 -27 15 0 145 -87 170
-114 79 -84 129 -223 115 -318 -9 -58 -88 -185 -146 -233 -55 -46 -81 -59
-155 -75 -33 -7 -87 -19 -119 -27 -83 -20 -217 -27 -301 -15 -166 24 -266 47
-300 69 -11 7 -27 13 -37 13 -10 0 -18 3 -18 8 0 4 -26 28 -58 54 -49 39 -60
54 -69 95 -22 89 -25 132 -13 189 10 47 20 65 63 108 82 81 186 106 289 69 59
-21 84 -67 74 -137 -8 -49 -37 -80 -104 -106 -34 -13 -62 -2 -62 25 0 6 -12
18 -26 26 -23 12 -27 12 -40 -6 -22 -30 -17 -61 17 -94 37 -38 78 -40 152 -10
159 66 196 242 73 343 -46 37 -140 63 -193 53 -125 -24 -224 -78 -251 -136 -9
-20 -20 -38 -23 -41 -3 -3 -14 -28 -23 -57 -35 -105 -20 -229 37 -315 41 -62
54 -75 108 -103 20 -11 55 -30 77 -42 37 -21 150 -49 232 -59 19 -2 65 -10
102 -17 37 -8 80 -13 95 -11 79 6 222 26 254 34 20 6 58 14 85 19 65 13 168
71 219 125 22 23 50 48 62 54 12 7 34 37 49 67 14 31 30 57 34 60 14 9 55 141
66 210 9 66 5 160 -10 216 -26 96 -53 169 -71 189 -9 10 -26 36 -38 58 -12 23
-34 54 -49 71 -49 55 -338 231 -378 231 -8 0 -44 16 -81 35 -38 19 -73 35 -79
35 -6 0 -57 22 -113 49 -56 27 -113 52 -127 56 -14 4 -32 13 -40 20 -8 7 -33
22 -56 33 -23 12 -63 45 -90 75 -40 43 -52 65 -62 113 -26 117 14 282 89 361
29 32 107 73 138 73 9 0 32 6 52 13 56 19 291 9 305 -14 3 -5 15 -9 27 -9 31
0 161 -64 211 -103 75 -59 148 -152 172 -217 29 -77 6 -174 -52 -219 -24 -19
-37 -22 -72 -17 -55 7 -101 32 -111 59 -12 32 7 75 40 93 31 16 38 44 15 63
-11 10 -22 9 -48 -5 -78 -39 -99 -91 -73 -179 14 -50 19 -57 63 -76 26 -12 75
-24 109 -27 l63 -5 55 48 c31 26 62 62 70 81 15 36 20 161 9 209 -11 45 -59
112 -138 190 -166 165 -419 235 -671 186z"/>
<path d="M10280 8474 c-109 -56 -186 -75 -281 -69 -86 5 -109 -2 -109 -36 0
-25 85 -62 123 -55 42 9 66 -9 95 -72 l27 -57 2 -290 c2 -290 8 -511 18 -615
6 -69 -10 -139 -39 -171 -12 -13 -42 -33 -67 -43 -111 -46 -129 -56 -129 -75
0 -41 70 -41 175 0 43 16 148 31 215 30 14 0 39 4 55 9 17 6 86 12 155 15 132
5 149 12 135 56 -10 32 -51 42 -117 29 -49 -9 -61 -9 -83 6 -27 18 -50 82 -42
120 2 13 0 47 -4 76 -5 29 -11 103 -14 163 -3 61 -10 162 -15 225 -18 225 -9
357 26 400 6 8 23 41 36 73 30 70 106 153 166 178 77 33 225 22 277 -21 31
-26 68 -94 82 -150 12 -51 11 -312 -2 -455 -2 -22 -6 -156 -9 -298 -3 -142 -8
-268 -12 -279 -8 -26 -43 -57 -64 -58 -22 -1 -50 -25 -50 -42 0 -19 26 -42 38
-35 4 3 48 12 97 20 68 11 112 13 180 6 192 -19 202 -19 215 -4 10 12 6 20
-18 45 -17 17 -41 30 -55 30 -14 0 -29 6 -35 13 -20 23 -31 243 -32 602 0 204
-4 376 -10 398 -23 88 -29 104 -48 147 -31 68 -58 88 -192 140 -35 13 -95 25
-163 30 -103 9 -112 8 -179 -16 -38 -14 -84 -38 -100 -52 -50 -44 -112 -112
-126 -138 -7 -13 -17 -24 -22 -24 -14 0 -12 49 4 160 20 134 9 143 -104 84z"/>
<path d="M6421 8469 c-30 -5 -59 -13 -65 -18 -6 -5 -27 -12 -46 -16 -56 -12
-173 -71 -202 -102 -31 -33 -57 -92 -60 -136 -2 -34 28 -143 46 -165 18 -25
105 -62 143 -62 49 0 139 42 148 69 18 57 -23 125 -83 137 -26 5 -36 1 -62
-25 -43 -43 -40 -85 8 -89 30 -3 32 -1 32 28 0 24 4 31 16 28 9 -2 22 -11 28
-20 16 -26 -3 -50 -50 -66 -47 -16 -75 -10 -114 26 -40 35 -61 132 -40 182 16
38 84 96 125 106 17 4 48 16 70 27 64 33 215 57 238 39 7 -6 30 -15 52 -21 50
-13 92 -52 115 -105 19 -43 35 -196 35 -341 l0 -80 -58 -2 c-32 -1 -66 -4 -75
-8 -9 -4 -44 -11 -77 -16 -96 -13 -189 -30 -205 -36 -8 -3 -19 -5 -23 -4 -30
6 -178 -50 -207 -79 -11 -11 -24 -20 -28 -20 -10 0 -69 -79 -94 -127 -24 -44
-41 -152 -36 -231 4 -65 6 -70 68 -151 65 -85 99 -111 174 -136 95 -31 170
-37 234 -19 15 4 32 8 39 10 30 6 92 28 133 46 44 20 109 82 110 105 0 6 3 13
8 15 4 2 25 30 46 62 l39 59 18 -34 c10 -19 18 -42 19 -52 1 -60 99 -178 167
-201 107 -37 175 -15 235 74 57 83 61 95 39 114 -26 24 -48 19 -56 -11 -19
-78 -75 -123 -154 -123 -68 0 -71 11 -66 287 2 131 8 283 14 338 18 184 -4
393 -54 500 -51 111 -113 163 -253 211 -106 36 -207 48 -291 33z m336 -704 c1
-16 8 -102 17 -189 14 -143 14 -160 0 -170 -8 -7 -26 -38 -39 -71 -14 -32 -31
-63 -40 -67 -8 -5 -15 -15 -15 -23 0 -22 -78 -82 -123 -94 -44 -11 -98 -16
-159 -13 -48 2 -100 47 -136 116 -23 44 -26 62 -25 138 1 79 4 95 37 161 20
41 36 81 36 89 0 27 83 95 126 102 21 4 44 12 51 18 18 15 164 36 233 34 32
-1 35 -4 37 -31z"/>
<path d="M6801 6826 c-61 -33 -159 -45 -212 -27 -18 6 -34 9 -37 7 -6 -7 125
-172 239 -301 122 -138 408 -419 559 -549 308 -264 565 -460 1530 -1166 168
-123 337 -246 375 -275 275 -203 269 -195 -60 85 -574 488 -1153 986 -1295
1113 -227 204 -618 600 -757 767 -66 80 -158 197 -204 260 l-84 115 -54 -29z"/>
<path d="M9682 3990 c0 -19 2 -27 5 -17 2 9 2 25 0 35 -3 9 -5 1 -5 -18z"/>
</g>
</svg>
